{"title":"THE PRINCE (2014) 720p WEB-DL x264[ETRG] GREEK SUBS","uid":11028347,"size":2937956232,"categoryP":"video","categoryS":"hd___movies","magnet":"?xt=urn:btih:4c508962bdf5f7c24057a4c435578787d79b2cd1&amp;dn=THE+PRINCE+%282014%29+720p+WEB-DL+x264%5BETRG%5D+GREEK+SUBS&amp;tr=udp%3A%2F%2Ftracker.openbittorrent.com%3A80&amp;tr=udp%3A%2F%2Fopen.demonii.com%3A1337&amp;tr=udp%3A%2F%2Ftracker.coppersurfer.tk%3A6969&amp;tr=udp%3A%2F%2Fexodus.desync.com%3A6969","seeders":3,"leechers":1,"uploader":"holyANT","files":-1,"time":1410687465,"description":"Eidos tainias: Action | Thriller\nBathmologia: 4.5/10 (2,562)\n\nSkinothesia: Brian A Miller\nSenario: Andre Fabrizio, Jeremy Passmore\nIthopoioi: Bruce Willis, John Cusack, Jessica Lowndes, Tara Holt\n\nPremiera (US): 22/08/14\nXora paragogis: USA\n\nYpothesi:\nO Pol einai pateras mias koris kai mixanikos apo ton Misisipi. Ayto poy kaneis den gnorizei apo toys gyro toy einai pos itan o Â«prigkipasÂ», enas ikanotatos ektelestis tis mafias. Otan i kori toy xanetai kai i ypopsia pigainei stin apagogi, o Pol prepei na erthei antimetopos me tin palia toy nemesis, ton Omar, gia na tin parei piso. [cine.gr]\n\n\n &lt;a href=&quot;\nhttp://image.bayimg.com/24b955844f1c9c1a74a0073a23a02e8725101343.jpg&quot; rel=&quot;nofollow&quot; target=&quot;_NEW&quot;&gt;\nhttp://image.bayimg.com/24b955844f1c9c1a74a0073a23a02e8725101343.jpg&lt;/a&gt;\n\n\nGeneral\nUnique ID : 237367716460751555864303904466275837919 (0xB2935BFAD6EDDCBE9E6AD4AC4366A7DF)\nComplete name : THE PRINCE (2014) 720p WEB-DL x264[ETRG]/THE PRINCE (2014) 720p WEB-DL x264[ETRG].mkv\nFormat : Matroska\nFormat version : Version 4 / Version 2\nFile size : 2.74 GiB\nDuration : 1h 30mn\nOverall bit rate : 4 322 Kbps\nEncoded date : UTC 2014-08-22 10:05:54\nWriting application : mkvmerge v6.7.0 ('Back to the Ground') 64bit built on Jan 8 2014 15:10:52\nWriting library : libebml v1.3.0 + libmatroska v1.4.1\n\nVideo\nID : 1\nFormat : AVC\nFormat/Info : Advanced Video Codec\nFormat profile : &lt;a class=&quot;__cf_email__&quot; href=&quot;/cdn-cgi/l/email-protection&quot; data-cfemail=&quot;b4f9d5dddaf4f8879a85&quot;&gt;[email&amp;#160;protected]&lt;/a&gt;&lt;script cf-hash='f9e31' type=&quot;text/javascript&quot;&gt;\n/* &lt;![CDATA[ */!function(){try{var t=&quot;currentScript&quot;in document?document.currentScript:function(){for(var t=document.getElementsByTagName(&quot;script&quot;),e=t.length;e--;)if(t[e].getAttribute(&quot;cf-hash&quot;))return t[e]}();if(t&amp;&amp;t.previousSibling){var e,r,n,i,c=t.previousSibling,a=c.getAttribute(&quot;data-cfemail&quot;);if(a){for(e=&quot;&quot;,r=parseInt(a.substr(0,2),16),n=2;a.length-n;n+=2)i=parseInt(a.substr(n,2),16)^r,e+=String.fromCharCode(i);e=document.createTextNode(e),c.parentNode.replaceChild(e,c)}}}catch(u){}}();/* ]]&gt; */&lt;/script&gt;\nFormat settings, CABAC : No\nFormat settings, ReFrames : 2 frames\nCodec ID : V_MPEG4/ISO/AVC\nDuration : 1h 30mn\nBit rate : 3 852 Kbps\nWidth : 1 280 pixels\nHeight : 532 pixels\nDisplay aspect ratio : 2.40:1\nFrame rate : 23.976 fps\nColor space : YUV\nChroma subsampling : 4:2:0\nBit depth : 8 bits\nScan type : Progressive\nBits/(Pixel*Frame) : 0.236\nStream size : 2.44 GiB (89%)\nLanguage : English\nDefault : Yes\nForced : No\nColor primaries : BT.709-5, BT.1361, IEC 61966-2-4, SMPTE RP177\nTransfer characteristics : BT.709-5, BT.1361\nMatrix coefficients : BT.709-5, BT.1361, IEC 61966-2-4 709, SMPTE RP177\n\nAudio\nID : 2\nFormat : AC-3\nFormat/Info : Audio Coding 3\nMode extension : CM (complete main)\nCodec ID : A_AC3\nDuration : 1h 30mn\nBit rate mode : Constant\nBit rate : 384 Kbps\nChannel(s) : 6 channels\nChannel positions : Front: L C R, Side: L R, LFE\nSampling rate : 48.0 KHz\nBit depth : 16 bits\nCompression mode : Lossy\nStream size : 249 MiB (9%)\nLanguage : English\nDefault : Yes\nForced : No\n\nText\nID : 3\nFormat : UTF-8\nCodec ID : S_TEXT/UTF8\nCodec ID/Info : UTF-8 Plain Text\nDefault : Yes\nForced : No\n\nMenu\n00:00:00.000 : en:Chapter 1\n00:03:34.000 : en:Chapter 2\n00:10:00.000 : en:Chapter 3\n00:20:16.000 : en:Chapter 4\n00:29:34.000 : en:Chapter 5\n00:42:07.000 : en:Chapter 6\n00:50:16.000 : en:Chapter 7\n00:58:12.000 : en:Chapter 8\n01:06:04.000 : en:Chapter 9\n01:15:07.000 : en:Chapter 10\n01:27:07.000 : en:Chapter 11\n","torrent":{"xt":"urn:btih:4c508962bdf5f7c24057a4c435578787d79b2cd1","amp;dn":"THE+PRINCE+%282014%29+720p+WEB-DL+x264%5BETRG%5D+GREEK+SUBS","amp;tr":["udp%3A%2F%2Ftracker.openbittorrent.com%3A80","udp%3A%2F%2Fopen.demonii.com%3A1337","udp%3A%2F%2Ftracker.coppersurfer.tk%3A6969","udp%3A%2F%2Fexodus.desync.com%3A6969"],"infoHash":"4c508962bdf5f7c24057a4c435578787d79b2cd1","infoHashBuffer":{"type":"Buffer","data":[76,80,137,98,189,245,247,194,64,87,164,196,53,87,135,135,215,155,44,209]},"announce":[],"urlList":[]}}